solid OpenSCAD_Model
  facet normal -1 0 0
    outer loop
      vertex -34.85 -1.5 8.5
      vertex -34.85 0 13
      vertex -34.85 0 7
    endloop
  endfacet
  facet normal -1 -0 0
    outer loop
      vertex -34.85 0 13
      vertex -34.85 -1.5 8.5
      vertex -34.85 -1.5 13
    endloop
  endfacet
  facet normal -1 0 0
    outer loop
      vertex -34.85 0 7
      vertex -34.85 50.3 0
      vertex -34.85 0 0
    endloop
  endfacet
  facet normal -1 0 0
    outer loop
      vertex -34.85 0 13
      vertex -34.85 50.3 0
      vertex -34.85 0 7
    endloop
  endfacet
  facet normal -1 0 0
    outer loop
      vertex -34.85 50.3 0
      vertex -34.85 0 13
      vertex -34.85 50.3 37
    endloop
  endfacet
  facet normal -1 -0 0
    outer loop
      vertex -34.85 50.3 37
      vertex -34.85 0 13
      vertex -34.85 0 37
    endloop
  endfacet
  facet normal 0 0 1
    outer loop
      vertex 34.85 50.3 37
      vertex 31.85 47.3 37
      vertex 34.85 0 37
    endloop
  endfacet
  facet normal 0 0 1
    outer loop
      vertex 34.85 50.3 37
      vertex -31.85 47.3 37
      vertex 31.85 47.3 37
    endloop
  endfacet
  facet normal 0 0 1
    outer loop
      vertex -31.85 47.3 37
      vertex -34.85 50.3 37
      vertex -31.85 3 37
    endloop
  endfacet
  facet normal -0 0 1
    outer loop
      vertex -34.85 50.3 37
      vertex -31.85 47.3 37
      vertex 34.85 50.3 37
    endloop
  endfacet
  facet normal -0 0 1
    outer loop
      vertex 31.85 3 37
      vertex 34.85 0 37
      vertex 31.85 47.3 37
    endloop
  endfacet
  facet normal -0 0 1
    outer loop
      vertex -31.85 3 37
      vertex 34.85 0 37
      vertex 31.85 3 37
    endloop
  endfacet
  facet normal 0 0 1
    outer loop
      vertex -31.85 3 37
      vertex -34.85 0 37
      vertex 34.85 0 37
    endloop
  endfacet
  facet normal 0 0 1
    outer loop
      vertex -34.85 0 37
      vertex -31.85 3 37
      vertex -34.85 50.3 37
    endloop
  endfacet
  facet normal 1 0 0
    outer loop
      vertex 34.85 50.3 37
      vertex 34.85 30.15 20
      vertex 34.85 50.3 13
    endloop
  endfacet
  facet normal 1 0 0
    outer loop
      vertex 34.85 50.3 37
      vertex 34.85 20.15 20
      vertex 34.85 30.15 20
    endloop
  endfacet
  facet normal 1 -0 0
    outer loop
      vertex 34.85 0 37
      vertex 34.85 20.15 20
      vertex 34.85 50.3 37
    endloop
  endfacet
  facet normal 1 0 0
    outer loop
      vertex 34.85 0 13
      vertex 34.85 20.15 20
      vertex 34.85 0 37
    endloop
  endfacet
  facet normal 1 0 0
    outer loop
      vertex 34.85 20.15 20
      vertex 34.85 0 13
      vertex 34.85 20.15 13
    endloop
  endfacet
  facet normal 1 0 0
    outer loop
      vertex 34.85 50.3 13
      vertex 34.85 30.15 20
      vertex 34.85 30.15 13
    endloop
  endfacet
  facet normal 1 0 0
    outer loop
      vertex 34.85 -1.5 8.5
      vertex 34.85 0 13
      vertex 34.85 -1.5 13
    endloop
  endfacet
  facet normal 1 0 0
    outer loop
      vertex 34.85 0 13
      vertex 34.85 -1.5 8.5
      vertex 34.85 0 7
    endloop
  endfacet
  facet normal 1 -0 0
    outer loop
      vertex 34.85 30.15 7
      vertex 34.85 50.3 0
      vertex 34.85 50.3 7
    endloop
  endfacet
  facet normal 1 0 0
    outer loop
      vertex 34.85 50.3 0
      vertex 34.85 30.15 7
      vertex 34.85 30.15 0
    endloop
  endfacet
  facet normal 1 -0 0
    outer loop
      vertex 34.85 0 7
      vertex 34.85 20.15 0
      vertex 34.85 20.15 7
    endloop
  endfacet
  facet normal 1 0 0
    outer loop
      vertex 34.85 20.15 0
      vertex 34.85 0 7
      vertex 34.85 0 0
    endloop
  endfacet
  facet normal 1 0 0
    outer loop
      vertex 34.85 25.8853 12.0203
      vertex 34.85 30.15 13
      vertex 34.85 30.15 20
    endloop
  endfacet
  facet normal 1 0 -0
    outer loop
      vertex 34.85 27.2673 10.3733
      vertex 34.85 30.15 13
      vertex 34.85 27.1703 10.7353
    endloop
  endfacet
  facet normal 1 -0 0
    outer loop
      vertex 34.85 27.2673 9.62666
      vertex 34.85 30.15 7
      vertex 34.85 27.3 10
    endloop
  endfacet
  facet normal 1 0 0
    outer loop
      vertex 34.85 30.15 13
      vertex 34.85 27.3 10
      vertex 34.85 30.15 7
    endloop
  endfacet
  facet normal 1 0 -0
    outer loop
      vertex 34.85 27.3 10
      vertex 34.85 30.15 13
      vertex 34.85 27.2673 10.3733
    endloop
  endfacet
  facet normal 1 0 0
    outer loop
      vertex 34.85 30.15 13
      vertex 34.85 27.012 11.075
      vertex 34.85 27.1703 10.7353
    endloop
  endfacet
  facet normal 1 0 0
    outer loop
      vertex 34.85 30.15 13
      vertex 34.85 26.797 11.382
      vertex 34.85 27.012 11.075
    endloop
  endfacet
  facet normal 1 0 0
    outer loop
      vertex 34.85 30.15 13
      vertex 34.85 26.532 11.647
      vertex 34.85 26.797 11.382
    endloop
  endfacet
  facet normal 1 0 0
    outer loop
      vertex 34.85 30.15 13
      vertex 34.85 26.225 11.862
      vertex 34.85 26.532 11.647
    endloop
  endfacet
  facet normal 1 0 0
    outer loop
      vertex 34.85 30.15 13
      vertex 34.85 25.8853 12.0203
      vertex 34.85 26.225 11.862
    endloop
  endfacet
  facet normal 1 0 0
    outer loop
      vertex 34.85 30.15 20
      vertex 34.85 25.5233 12.1173
      vertex 34.85 25.8853 12.0203
    endloop
  endfacet
  facet normal 1 0 0
    outer loop
      vertex 34.85 30.15 20
      vertex 34.85 25.15 12.15
      vertex 34.85 25.5233 12.1173
    endloop
  endfacet
  facet normal 1 -0 0
    outer loop
      vertex 34.85 20.15 20
      vertex 34.85 25.15 12.15
      vertex 34.85 30.15 20
    endloop
  endfacet
  facet normal 1 0 0
    outer loop
      vertex 34.85 25.15 12.15
      vertex 34.85 20.15 20
      vertex 34.85 24.7767 12.1173
    endloop
  endfacet
  facet normal 1 0 0
    outer loop
      vertex 34.85 24.7767 12.1173
      vertex 34.85 20.15 20
      vertex 34.85 24.4147 12.0203
    endloop
  endfacet
  facet normal 1 -0 0
    outer loop
      vertex 34.85 20.15 13
      vertex 34.85 24.4147 12.0203
      vertex 34.85 20.15 20
    endloop
  endfacet
  facet normal 1 0 0
    outer loop
      vertex 34.85 24.4147 12.0203
      vertex 34.85 20.15 13
      vertex 34.85 24.075 11.862
    endloop
  endfacet
  facet normal 1 0 0
    outer loop
      vertex 34.85 23.1297 10.7353
      vertex 34.85 20.15 13
      vertex 34.85 23.0327 10.3733
    endloop
  endfacet
  facet normal 1 0 0
    outer loop
      vertex 34.85 23.288 11.075
      vertex 34.85 20.15 13
      vertex 34.85 23.1297 10.7353
    endloop
  endfacet
  facet normal 1 0 0
    outer loop
      vertex 34.85 23.503 11.382
      vertex 34.85 20.15 13
      vertex 34.85 23.288 11.075
    endloop
  endfacet
  facet normal 1 0 0
    outer loop
      vertex 34.85 23.768 11.647
      vertex 34.85 20.15 13
      vertex 34.85 23.503 11.382
    endloop
  endfacet
  facet normal 1 0 0
    outer loop
      vertex 34.85 24.075 11.862
      vertex 34.85 20.15 13
      vertex 34.85 23.768 11.647
    endloop
  endfacet
  facet normal 1 -0 0
    outer loop
      vertex 34.85 27.1703 9.26466
      vertex 34.85 30.15 7
      vertex 34.85 27.2673 9.62666
    endloop
  endfacet
  facet normal 1 -0 0
    outer loop
      vertex 34.85 27.012 8.925
      vertex 34.85 30.15 7
      vertex 34.85 27.1703 9.26466
    endloop
  endfacet
  facet normal 1 -0 0
    outer loop
      vertex 34.85 26.797 8.61801
      vertex 34.85 30.15 7
      vertex 34.85 27.012 8.925
    endloop
  endfacet
  facet normal 1 -0 0
    outer loop
      vertex 34.85 26.532 8.353
      vertex 34.85 30.15 7
      vertex 34.85 26.797 8.61801
    endloop
  endfacet
  facet normal 1 -0 0
    outer loop
      vertex 34.85 26.225 8.13805
      vertex 34.85 30.15 7
      vertex 34.85 26.532 8.353
    endloop
  endfacet
  facet normal 1 -0 0
    outer loop
      vertex 34.85 25.8853 7.97966
      vertex 34.85 30.15 7
      vertex 34.85 26.225 8.13805
    endloop
  endfacet
  facet normal 1 0 0
    outer loop
      vertex 34.85 30.15 7
      vertex 34.85 25.8853 7.97966
      vertex 34.85 30.15 0
    endloop
  endfacet
  facet normal 1 -0 0
    outer loop
      vertex 34.85 25.5233 7.88266
      vertex 34.85 30.15 0
      vertex 34.85 25.8853 7.97966
    endloop
  endfacet
  facet normal 1 -0 0
    outer loop
      vertex 34.85 25.15 7.85
      vertex 34.85 30.15 0
      vertex 34.85 25.5233 7.88266
    endloop
  endfacet
  facet normal 1 0 0
    outer loop
      vertex 34.85 20.15 0
      vertex 34.85 25.15 7.85
      vertex 34.85 24.7767 7.88266
    endloop
  endfacet
  facet normal 1 0 0
    outer loop
      vertex 34.85 20.15 0
      vertex 34.85 24.7767 7.88266
      vertex 34.85 24.4147 7.97966
    endloop
  endfacet
  facet normal 1 0 0
    outer loop
      vertex 34.85 20.15 7
      vertex 34.85 24.4147 7.97966
      vertex 34.85 24.075 8.13805
    endloop
  endfacet
  facet normal 1 0 0
    outer loop
      vertex 34.85 20.15 7
      vertex 34.85 24.075 8.13805
      vertex 34.85 23.768 8.353
    endloop
  endfacet
  facet normal 1 0 0
    outer loop
      vertex 34.85 20.15 7
      vertex 34.85 23.768 8.353
      vertex 34.85 23.503 8.61801
    endloop
  endfacet
  facet normal 1 0 0
    outer loop
      vertex 34.85 23.0327 10.3733
      vertex 34.85 20.15 13
      vertex 34.85 23 10
    endloop
  endfacet
  facet normal 1 0 0
    outer loop
      vertex 34.85 20.15 7
      vertex 34.85 23 10
      vertex 34.85 20.15 13
    endloop
  endfacet
  facet normal 1 0 0
    outer loop
      vertex 34.85 23 10
      vertex 34.85 20.15 7
      vertex 34.85 23.0327 9.62666
    endloop
  endfacet
  facet normal 1 0 0
    outer loop
      vertex 34.85 23.0327 9.62666
      vertex 34.85 20.15 7
      vertex 34.85 23.1297 9.26466
    endloop
  endfacet
  facet normal 1 0 0
    outer loop
      vertex 34.85 23.1297 9.26466
      vertex 34.85 20.15 7
      vertex 34.85 23.288 8.925
    endloop
  endfacet
  facet normal 1 0 0
    outer loop
      vertex 34.85 23.288 8.925
      vertex 34.85 20.15 7
      vertex 34.85 23.503 8.61801
    endloop
  endfacet
  facet normal 1 0 0
    outer loop
      vertex 34.85 24.4147 7.97966
      vertex 34.85 20.15 7
      vertex 34.85 20.15 0
    endloop
  endfacet
  facet normal 1 0 0
    outer loop
      vertex 34.85 25.15 7.85
      vertex 34.85 20.15 0
      vertex 34.85 30.15 0
    endloop
  endfacet
  facet normal 0 1 0
    outer loop
      vertex 36.35 50.3 13
      vertex 36.35 50.3 8.5
      vertex 34.85 50.3 13
    endloop
  endfacet
  facet normal 0 1 -0
    outer loop
      vertex 34.85 50.3 13
      vertex -34.85 50.3 37
      vertex 34.85 50.3 37
    endloop
  endfacet
  facet normal 0 1 0
    outer loop
      vertex 34.85 50.3 7
      vertex 34.85 50.3 13
      vertex 36.35 50.3 8.5
    endloop
  endfacet
  facet normal 0 1 0
    outer loop
      vertex -34.85 50.3 0
      vertex 34.85 50.3 13
      vertex 34.85 50.3 7
    endloop
  endfacet
  facet normal 0 1 0
    outer loop
      vertex -34.85 50.3 0
      vertex 34.85 50.3 7
      vertex 34.85 50.3 0
    endloop
  endfacet
  facet normal 0 1 0
    outer loop
      vertex 34.85 50.3 13
      vertex -34.85 50.3 0
      vertex -34.85 50.3 37
    endloop
  endfacet
  facet normal 0 0 -1
    outer loop
      vertex 23.85 11 0
      vertex 34.85 20.15 0
      vertex 34.85 0 0
    endloop
  endfacet
  facet normal -0 0 -1
    outer loop
      vertex 34.85 20.15 0
      vertex 23.85 11 0
      vertex 34.85 30.15 0
    endloop
  endfacet
  facet normal 0 0 -1
    outer loop
      vertex 23.85 39.3 0
      vertex 34.85 30.15 0
      vertex 23.85 11 0
    endloop
  endfacet
  facet normal 0 0 -1
    outer loop
      vertex 5 0 0
      vertex 23.85 11 0
      vertex 34.85 0 0
    endloop
  endfacet
  facet normal 0 0 -1
    outer loop
      vertex -5 0 0
      vertex 23.85 11 0
      vertex 5 0 0
    endloop
  endfacet
  facet normal 0 0 -1
    outer loop
      vertex -5 0 0
      vertex -23.85 11 0
      vertex 23.85 11 0
    endloop
  endfacet
  facet normal -0 0 -1
    outer loop
      vertex -23.85 11 0
      vertex -34.85 0 0
      vertex -23.85 39.3 0
    endloop
  endfacet
  facet normal 0 0 -1
    outer loop
      vertex -34.85 0 0
      vertex -23.85 11 0
      vertex -5 0 0
    endloop
  endfacet
  facet normal 0 0 -1
    outer loop
      vertex 34.85 30.15 0
      vertex 23.85 39.3 0
      vertex 34.85 50.3 0
    endloop
  endfacet
  facet normal 0 0 -1
    outer loop
      vertex -23.85 39.3 0
      vertex 34.85 50.3 0
      vertex 23.85 39.3 0
    endloop
  endfacet
  facet normal 0 0 -1
    outer loop
      vertex -23.85 39.3 0
      vertex -34.85 50.3 0
      vertex 34.85 50.3 0
    endloop
  endfacet
  facet normal 0 0 -1
    outer loop
      vertex -34.85 50.3 0
      vertex -23.85 39.3 0
      vertex -34.85 0 0
    endloop
  endfacet
  facet normal 0 -1 0
    outer loop
      vertex -34.85 0 37
      vertex -5 0 20
      vertex 34.85 0 37
    endloop
  endfacet
  facet normal 0 -1 0
    outer loop
      vertex -34.85 0 13
      vertex -5 0 20
      vertex -34.85 0 37
    endloop
  endfacet
  facet normal 0 -1 -0
    outer loop
      vertex -5 0 20
      vertex -34.85 0 13
      vertex -5 0 13
    endloop
  endfacet
  facet normal 0 -1 0
    outer loop
      vertex 5 0 20
      vertex 34.85 0 37
      vertex -5 0 20
    endloop
  endfacet
  facet normal 0 -1 0
    outer loop
      vertex 34.85 0 13
      vertex 5 0 20
      vertex 5 0 13
    endloop
  endfacet
  facet normal 0 -1 0
    outer loop
      vertex 5 0 20
      vertex 34.85 0 13
      vertex 34.85 0 37
    endloop
  endfacet
  facet normal 0 -1 0
    outer loop
      vertex 5 0 0
      vertex 34.85 0 7
      vertex 5 0 7
    endloop
  endfacet
  facet normal 0 -1 -0
    outer loop
      vertex 34.85 0 7
      vertex 5 0 0
      vertex 34.85 0 0
    endloop
  endfacet
  facet normal 0 -1 0
    outer loop
      vertex -34.85 0 0
      vertex -5 0 7
      vertex -34.85 0 7
    endloop
  endfacet
  facet normal 0 -1 -0
    outer loop
      vertex -5 0 7
      vertex -34.85 0 0
      vertex -5 0 0
    endloop
  endfacet
  facet normal 0 -1 0
    outer loop
      vertex -0.735343 0 12.0203
      vertex -5 0 20
      vertex -5 0 13
    endloop
  endfacet
  facet normal -0 -1 0
    outer loop
      vertex 0 0 12.15
      vertex -5 0 20
      vertex -0.373343 0 12.1173
    endloop
  endfacet
  facet normal 0 -1 0
    outer loop
      vertex 0.373343 0 12.1173
      vertex 5 0 20
      vertex 0 0 12.15
    endloop
  endfacet
  facet normal 0 -1 0
    outer loop
      vertex -5 0 20
      vertex 0 0 12.15
      vertex 5 0 20
    endloop
  endfacet
  facet normal 0 -1 0
    outer loop
      vertex -5 0 20
      vertex -0.735343 0 12.0203
      vertex -0.373343 0 12.1173
    endloop
  endfacet
  facet normal 0 -1 0
    outer loop
      vertex -5 0 13
      vertex -1.075 0 11.862
      vertex -0.735343 0 12.0203
    endloop
  endfacet
  facet normal 0 -1 0
    outer loop
      vertex -5 0 13
      vertex -1.38199 0 11.647
      vertex -1.075 0 11.862
    endloop
  endfacet
  facet normal 0 -1 0
    outer loop
      vertex -5 0 13
      vertex -1.647 0 11.382
      vertex -1.38199 0 11.647
    endloop
  endfacet
  facet normal 0 -1 0
    outer loop
      vertex -5 0 13
      vertex -1.86195 0 11.075
      vertex -1.647 0 11.382
    endloop
  endfacet
  facet normal 0 -1 0
    outer loop
      vertex -5 0 13
      vertex -2.02034 0 10.7353
      vertex -1.86195 0 11.075
    endloop
  endfacet
  facet normal 0 -1 0
    outer loop
      vertex -5 0 13
      vertex -2.11734 0 10.3733
      vertex -2.02034 0 10.7353
    endloop
  endfacet
  facet normal 0 -1 0
    outer loop
      vertex -5 0 13
      vertex -2.15 0 10
      vertex -2.11734 0 10.3733
    endloop
  endfacet
  facet normal 0 -1 0
    outer loop
      vertex -5 0 7
      vertex -2.15 0 10
      vertex -5 0 13
    endloop
  endfacet
  facet normal 0 -1 -0
    outer loop
      vertex -2.15 0 10
      vertex -5 0 7
      vertex -2.11734 0 9.62666
    endloop
  endfacet
  facet normal 0 -1 -0
    outer loop
      vertex -2.11734 0 9.62666
      vertex -5 0 7
      vertex -2.02034 0 9.26466
    endloop
  endfacet
  facet normal 0 -1 -0
    outer loop
      vertex -2.02034 0 9.26466
      vertex -5 0 7
      vertex -1.86195 0 8.925
    endloop
  endfacet
  facet normal 0 -1 -0
    outer loop
      vertex -0.735343 0 7.97966
      vertex -5 0 0
      vertex -0.373343 0 7.88266
    endloop
  endfacet
  facet normal 0 -1 0
    outer loop
      vertex -5 0 0
      vertex -0.735343 0 7.97966
      vertex -5 0 7
    endloop
  endfacet
  facet normal 0 -1 -0
    outer loop
      vertex -1.075 0 8.13805
      vertex -5 0 7
      vertex -0.735343 0 7.97966
    endloop
  endfacet
  facet normal 0 -1 -0
    outer loop
      vertex -1.38199 0 8.353
      vertex -5 0 7
      vertex -1.075 0 8.13805
    endloop
  endfacet
  facet normal 0 -1 -0
    outer loop
      vertex -1.647 0 8.61801
      vertex -5 0 7
      vertex -1.38199 0 8.353
    endloop
  endfacet
  facet normal 0 -1 -0
    outer loop
      vertex -1.86195 0 8.925
      vertex -5 0 7
      vertex -1.647 0 8.61801
    endloop
  endfacet
  facet normal 0 -1 0
    outer loop
      vertex 0.735343 0 12.0203
      vertex 5 0 20
      vertex 0.373343 0 12.1173
    endloop
  endfacet
  facet normal 0 -1 -0
    outer loop
      vertex 5 0 20
      vertex 0.735343 0 12.0203
      vertex 5 0 13
    endloop
  endfacet
  facet normal 0 -1 0
    outer loop
      vertex 1.075 0 11.862
      vertex 5 0 13
      vertex 0.735343 0 12.0203
    endloop
  endfacet
  facet normal 0 -1 0
    outer loop
      vertex 1.38199 0 11.647
      vertex 5 0 13
      vertex 1.075 0 11.862
    endloop
  endfacet
  facet normal 0 -1 0
    outer loop
      vertex 1.647 0 11.382
      vertex 5 0 13
      vertex 1.38199 0 11.647
    endloop
  endfacet
  facet normal 0 -1 0
    outer loop
      vertex 1.86195 0 11.075
      vertex 5 0 13
      vertex 1.647 0 11.382
    endloop
  endfacet
  facet normal 0 -1 0
    outer loop
      vertex 2.02034 0 10.7353
      vertex 5 0 13
      vertex 1.86195 0 11.075
    endloop
  endfacet
  facet normal 0 -1 0
    outer loop
      vertex 2.11734 0 10.3733
      vertex 5 0 13
      vertex 2.02034 0 10.7353
    endloop
  endfacet
  facet normal 0 -1 0
    outer loop
      vertex 2.15 0 10
      vertex 5 0 13
      vertex 2.11734 0 10.3733
    endloop
  endfacet
  facet normal 0 -1 0
    outer loop
      vertex 5 0 7
      vertex 2.15 0 10
      vertex 2.11734 0 9.62666
    endloop
  endfacet
  facet normal 0 -1 0
    outer loop
      vertex 5 0 7
      vertex 2.11734 0 9.62666
      vertex 2.02034 0 9.26466
    endloop
  endfacet
  facet normal 0 -1 0
    outer loop
      vertex 5 0 7
      vertex 2.02034 0 9.26466
      vertex 1.86195 0 8.925
    endloop
  endfacet
  facet normal 0 -1 0
    outer loop
      vertex 5 0 7
      vertex 1.86195 0 8.925
      vertex 1.647 0 8.61801
    endloop
  endfacet
  facet normal 0 -1 -0
    outer loop
      vertex -0.373343 0 7.88266
      vertex -5 0 0
      vertex 0 0 7.85
    endloop
  endfacet
  facet normal 0 -1 0
    outer loop
      vertex 2.15 0 10
      vertex 5 0 7
      vertex 5 0 13
    endloop
  endfacet
  facet normal 0 -1 0
    outer loop
      vertex 1.38199 0 8.353
      vertex 5 0 7
      vertex 1.647 0 8.61801
    endloop
  endfacet
  facet normal 0 -1 0
    outer loop
      vertex 1.075 0 8.13805
      vertex 5 0 7
      vertex 1.38199 0 8.353
    endloop
  endfacet
  facet normal 0 -1 0
    outer loop
      vertex 0.735343 0 7.97966
      vertex 5 0 7
      vertex 1.075 0 8.13805
    endloop
  endfacet
  facet normal 0 -1 0
    outer loop
      vertex 5 0 0
      vertex 0.735343 0 7.97966
      vertex 0.373343 0 7.88266
    endloop
  endfacet
  facet normal 0 -1 0
    outer loop
      vertex 5 0 0
      vertex 0 0 7.85
      vertex -5 0 0
    endloop
  endfacet
  facet normal 0 -1 0
    outer loop
      vertex 0 0 7.85
      vertex 5 0 0
      vertex 0.373343 0 7.88266
    endloop
  endfacet
  facet normal 0 -1 0
    outer loop
      vertex 0.735343 0 7.97966
      vertex 5 0 0
      vertex 5 0 7
    endloop
  endfacet
  facet normal -0 0 1
    outer loop
      vertex 5 0 13
      vertex 34.85 -1.5 13
      vertex 34.85 0 13
    endloop
  endfacet
  facet normal 0 0 1
    outer loop
      vertex 34.85 -1.5 13
      vertex 5 0 13
      vertex 5 -1.5 13
    endloop
  endfacet
  facet normal -0 0 1
    outer loop
      vertex -34.85 0 13
      vertex -5 -1.5 13
      vertex -5 0 13
    endloop
  endfacet
  facet normal 0 0 1
    outer loop
      vertex -5 -1.5 13
      vertex -34.85 0 13
      vertex -34.85 -1.5 13
    endloop
  endfacet
  facet normal 0 -0.707107 -0.707107
    outer loop
      vertex 5 0 7
      vertex 34.85 -1.5 8.5
      vertex 5 -1.5 8.5
    endloop
  endfacet
  facet normal 0 -0.707107 -0.707107
    outer loop
      vertex 34.85 -1.5 8.5
      vertex 5 0 7
      vertex 34.85 0 7
    endloop
  endfacet
  facet normal 0 -0.707107 -0.707107
    outer loop
      vertex -34.85 0 7
      vertex -5 -1.5 8.5
      vertex -34.85 -1.5 8.5
    endloop
  endfacet
  facet normal 0 -0.707107 -0.707107
    outer loop
      vertex -5 -1.5 8.5
      vertex -34.85 0 7
      vertex -5 0 7
    endloop
  endfacet
  facet normal 0 -1 0
    outer loop
      vertex 5 -1.5 8.5
      vertex 34.85 -1.5 13
      vertex 5 -1.5 13
    endloop
  endfacet
  facet normal 0 -1 -0
    outer loop
      vertex 34.85 -1.5 13
      vertex 5 -1.5 8.5
      vertex 34.85 -1.5 8.5
    endloop
  endfacet
  facet normal 0 -1 0
    outer loop
      vertex -34.85 -1.5 8.5
      vertex -5 -1.5 13
      vertex -34.85 -1.5 13
    endloop
  endfacet
  facet normal 0 -1 -0
    outer loop
      vertex -5 -1.5 13
      vertex -34.85 -1.5 8.5
      vertex -5 -1.5 8.5
    endloop
  endfacet
  facet normal -0 0 1
    outer loop
      vertex 34.85 50.3 13
      vertex 36.35 30.15 13
      vertex 36.35 50.3 13
    endloop
  endfacet
  facet normal 0 0 1
    outer loop
      vertex 36.35 30.15 13
      vertex 34.85 50.3 13
      vertex 34.85 30.15 13
    endloop
  endfacet
  facet normal -0 0 1
    outer loop
      vertex 34.85 20.15 13
      vertex 36.35 0 13
      vertex 36.35 20.15 13
    endloop
  endfacet
  facet normal 0 0 1
    outer loop
      vertex 36.35 0 13
      vertex 34.85 20.15 13
      vertex 34.85 0 13
    endloop
  endfacet
  facet normal 1 -0 0
    outer loop
      vertex 36.35 30.15 13
      vertex 36.35 50.3 8.5
      vertex 36.35 50.3 13
    endloop
  endfacet
  facet normal 1 0 0
    outer loop
      vertex 36.35 50.3 8.5
      vertex 36.35 30.15 13
      vertex 36.35 30.15 8.5
    endloop
  endfacet
  facet normal 1 -0 0
    outer loop
      vertex 36.35 0 13
      vertex 36.35 20.15 8.5
      vertex 36.35 20.15 13
    endloop
  endfacet
  facet normal 1 0 0
    outer loop
      vertex 36.35 20.15 8.5
      vertex 36.35 0 13
      vertex 36.35 0 8.5
    endloop
  endfacet
  facet normal 0.707107 0 -0.707107
    outer loop
      vertex 36.35 30.15 8.5
      vertex 34.85 50.3 7
      vertex 36.35 50.3 8.5
    endloop
  endfacet
  facet normal 0.707107 0 -0.707107
    outer loop
      vertex 34.85 50.3 7
      vertex 36.35 30.15 8.5
      vertex 34.85 30.15 7
    endloop
  endfacet
  facet normal 0.707107 0 -0.707107
    outer loop
      vertex 36.35 0 8.5
      vertex 34.85 20.15 7
      vertex 36.35 20.15 8.5
    endloop
  endfacet
  facet normal 0.707107 0 -0.707107
    outer loop
      vertex 34.85 20.15 7
      vertex 36.35 0 8.5
      vertex 34.85 0 7
    endloop
  endfacet
  facet normal 0 -1 0
    outer loop
      vertex 34.85 0 13
      vertex 36.35 0 8.5
      vertex 36.35 0 13
    endloop
  endfacet
  facet normal -0 -1 0
    outer loop
      vertex 36.35 0 8.5
      vertex 34.85 0 13
      vertex 34.85 0 7
    endloop
  endfacet
  facet normal -0.996195 0 0.0871556
    outer loop
      vertex 2.11734 0 9.62666
      vertex 2.15 3 10
      vertex 2.11734 3 9.62666
    endloop
  endfacet
  facet normal -0.996195 0 0.0871556
    outer loop
      vertex 2.15 3 10
      vertex 2.11734 0 9.62666
      vertex 2.15 0 10
    endloop
  endfacet
  facet normal 0.996195 -0 0.0871556
    outer loop
      vertex -2.15 0 10
      vertex -2.11734 3 9.62666
      vertex -2.15 3 10
    endloop
  endfacet
  facet normal 0.996195 0 0.0871556
    outer loop
      vertex -2.11734 3 9.62666
      vertex -2.15 0 10
      vertex -2.11734 0 9.62666
    endloop
  endfacet
  facet normal 0.0871558 0 0.996195
    outer loop
      vertex -0.373343 3 7.88266
      vertex 0 0 7.85
      vertex 0 3 7.85
    endloop
  endfacet
  facet normal 0.0871558 0 0.996195
    outer loop
      vertex 0 0 7.85
      vertex -0.373343 3 7.88266
      vertex -0.373343 0 7.88266
    endloop
  endfacet
  facet normal -0.0871558 0 -0.996195
    outer loop
      vertex 0 0 12.15
      vertex 0.373343 3 12.1173
      vertex 0.373343 0 12.1173
    endloop
  endfacet
  facet normal -0.0871558 0 -0.996195
    outer loop
      vertex 0.373343 3 12.1173
      vertex 0 0 12.15
      vertex 0 3 12.15
    endloop
  endfacet
  facet normal -0.707107 0 0.707107
    outer loop
      vertex 1.38199 0 8.353
      vertex 1.647 3 8.61801
      vertex 1.38199 3 8.353
    endloop
  endfacet
  facet normal -0.707107 0 0.707107
    outer loop
      vertex 1.647 3 8.61801
      vertex 1.38199 0 8.353
      vertex 1.647 0 8.61801
    endloop
  endfacet
  facet normal 0.707107 -0 0.707107
    outer loop
      vertex -1.647 0 8.61801
      vertex -1.38199 3 8.353
      vertex -1.647 3 8.61801
    endloop
  endfacet
  facet normal 0.707107 0 0.707107
    outer loop
      vertex -1.38199 3 8.353
      vertex -1.647 0 8.61801
      vertex -1.38199 0 8.353
    endloop
  endfacet
  facet normal 0.42262 0 0.906307
    outer loop
      vertex -1.075 3 8.13805
      vertex -0.735343 0 7.97966
      vertex -0.735343 3 7.97966
    endloop
  endfacet
  facet normal 0.42262 0 0.906307
    outer loop
      vertex -0.735343 0 7.97966
      vertex -1.075 3 8.13805
      vertex -1.075 0 8.13805
    endloop
  endfacet
  facet normal -0.906307 0 0.42262
    outer loop
      vertex 1.86195 0 8.925
      vertex 2.02034 3 9.26466
      vertex 1.86195 3 8.925
    endloop
  endfacet
  facet normal -0.906307 0 0.42262
    outer loop
      vertex 2.02034 3 9.26466
      vertex 1.86195 0 8.925
      vertex 2.02034 0 9.26466
    endloop
  endfacet
  facet normal -0.965926 0 0.258819
    outer loop
      vertex 2.02034 0 9.26466
      vertex 2.11734 3 9.62666
      vertex 2.02034 3 9.26466
    endloop
  endfacet
  facet normal -0.965926 0 0.258819
    outer loop
      vertex 2.11734 3 9.62666
      vertex 2.02034 0 9.26466
      vertex 2.11734 0 9.62666
    endloop
  endfacet
  facet normal -0.819153 0 0.573575
    outer loop
      vertex 1.647 0 8.61801
      vertex 1.86195 3 8.925
      vertex 1.647 3 8.61801
    endloop
  endfacet
  facet normal -0.819153 0 0.573575
    outer loop
      vertex 1.86195 3 8.925
      vertex 1.647 0 8.61801
      vertex 1.86195 0 8.925
    endloop
  endfacet
  facet normal -0.42262 0 0.906307
    outer loop
      vertex 0.735343 3 7.97966
      vertex 1.075 0 8.13805
      vertex 1.075 3 8.13805
    endloop
  endfacet
  facet normal -0.42262 0 0.906307
    outer loop
      vertex 1.075 0 8.13805
      vertex 0.735343 3 7.97966
      vertex 0.735343 0 7.97966
    endloop
  endfacet
  facet normal -0.573575 0 0.819153
    outer loop
      vertex 1.075 3 8.13805
      vertex 1.38199 0 8.353
      vertex 1.38199 3 8.353
    endloop
  endfacet
  facet normal -0.573575 0 0.819153
    outer loop
      vertex 1.38199 0 8.353
      vertex 1.075 3 8.13805
      vertex 1.075 0 8.13805
    endloop
  endfacet
  facet normal 0.906307 -0 0.42262
    outer loop
      vertex -2.02034 0 9.26466
      vertex -1.86195 3 8.925
      vertex -2.02034 3 9.26466
    endloop
  endfacet
  facet normal 0.906307 0 0.42262
    outer loop
      vertex -1.86195 3 8.925
      vertex -2.02034 0 9.26466
      vertex -1.86195 0 8.925
    endloop
  endfacet
  facet normal 0.819153 -0 0.573575
    outer loop
      vertex -1.86195 0 8.925
      vertex -1.647 3 8.61801
      vertex -1.86195 3 8.925
    endloop
  endfacet
  facet normal 0.819153 0 0.573575
    outer loop
      vertex -1.647 3 8.61801
      vertex -1.86195 0 8.925
      vertex -1.647 0 8.61801
    endloop
  endfacet
  facet normal 0.965926 -0 0.258819
    outer loop
      vertex -2.11734 0 9.62666
      vertex -2.02034 3 9.26466
      vertex -2.11734 3 9.62666
    endloop
  endfacet
  facet normal 0.965926 0 0.258819
    outer loop
      vertex -2.02034 3 9.26466
      vertex -2.11734 0 9.62666
      vertex -2.02034 0 9.26466
    endloop
  endfacet
  facet normal 0.573575 0 0.819153
    outer loop
      vertex -1.38199 3 8.353
      vertex -1.075 0 8.13805
      vertex -1.075 3 8.13805
    endloop
  endfacet
  facet normal 0.573575 0 0.819153
    outer loop
      vertex -1.075 0 8.13805
      vertex -1.38199 3 8.353
      vertex -1.38199 0 8.353
    endloop
  endfacet
  facet normal 0.258819 0 0.965926
    outer loop
      vertex -0.735343 3 7.97966
      vertex -0.373343 0 7.88266
      vertex -0.373343 3 7.88266
    endloop
  endfacet
  facet normal 0.258819 0 0.965926
    outer loop
      vertex -0.373343 0 7.88266
      vertex -0.735343 3 7.97966
      vertex -0.735343 0 7.97966
    endloop
  endfacet
  facet normal -0.965926 0 -0.258819
    outer loop
      vertex 2.11734 0 10.3733
      vertex 2.02034 3 10.7353
      vertex 2.11734 3 10.3733
    endloop
  endfacet
  facet normal -0.965926 -0 -0.258819
    outer loop
      vertex 2.02034 3 10.7353
      vertex 2.11734 0 10.3733
      vertex 2.02034 0 10.7353
    endloop
  endfacet
  facet normal 0.906307 0 -0.42262
    outer loop
      vertex -1.86195 0 11.075
      vertex -2.02034 3 10.7353
      vertex -1.86195 3 11.075
    endloop
  endfacet
  facet normal 0.906307 0 -0.42262
    outer loop
      vertex -2.02034 3 10.7353
      vertex -1.86195 0 11.075
      vertex -2.02034 0 10.7353
    endloop
  endfacet
  facet normal -0.258819 0 -0.965926
    outer loop
      vertex 0.373343 0 12.1173
      vertex 0.735343 3 12.0203
      vertex 0.735343 0 12.0203
    endloop
  endfacet
  facet normal -0.258819 0 -0.965926
    outer loop
      vertex 0.735343 3 12.0203
      vertex 0.373343 0 12.1173
      vertex 0.373343 3 12.1173
    endloop
  endfacet
  facet normal -0.258819 0 0.965926
    outer loop
      vertex 0.373343 3 7.88266
      vertex 0.735343 0 7.97966
      vertex 0.735343 3 7.97966
    endloop
  endfacet
  facet normal -0.258819 0 0.965926
    outer loop
      vertex 0.735343 0 7.97966
      vertex 0.373343 3 7.88266
      vertex 0.373343 0 7.88266
    endloop
  endfacet
  facet normal -0.0871558 0 0.996195
    outer loop
      vertex 0 3 7.85
      vertex 0.373343 0 7.88266
      vertex 0.373343 3 7.88266
    endloop
  endfacet
  facet normal -0.0871558 0 0.996195
    outer loop
      vertex 0.373343 0 7.88266
      vertex 0 3 7.85
      vertex 0 0 7.85
    endloop
  endfacet
  facet normal -0.819153 0 -0.573575
    outer loop
      vertex 1.86195 0 11.075
      vertex 1.647 3 11.382
      vertex 1.86195 3 11.075
    endloop
  endfacet
  facet normal -0.819153 -0 -0.573575
    outer loop
      vertex 1.647 3 11.382
      vertex 1.86195 0 11.075
      vertex 1.647 0 11.382
    endloop
  endfacet
  facet normal 0.996195 0 -0.0871558
    outer loop
      vertex -2.11734 0 10.3733
      vertex -2.15 3 10
      vertex -2.11734 3 10.3733
    endloop
  endfacet
  facet normal 0.996195 0 -0.0871558
    outer loop
      vertex -2.15 3 10
      vertex -2.11734 0 10.3733
      vertex -2.15 0 10
    endloop
  endfacet
  facet normal -0.573575 0 -0.819153
    outer loop
      vertex 1.075 0 11.862
      vertex 1.38199 3 11.647
      vertex 1.38199 0 11.647
    endloop
  endfacet
  facet normal -0.573575 0 -0.819153
    outer loop
      vertex 1.38199 3 11.647
      vertex 1.075 0 11.862
      vertex 1.075 3 11.862
    endloop
  endfacet
  facet normal -0.42262 0 -0.906307
    outer loop
      vertex 0.735343 0 12.0203
      vertex 1.075 3 11.862
      vertex 1.075 0 11.862
    endloop
  endfacet
  facet normal -0.42262 0 -0.906307
    outer loop
      vertex 1.075 3 11.862
      vertex 0.735343 0 12.0203
      vertex 0.735343 3 12.0203
    endloop
  endfacet
  facet normal -0.996195 0 -0.0871558
    outer loop
      vertex 2.15 0 10
      vertex 2.11734 3 10.3733
      vertex 2.15 3 10
    endloop
  endfacet
  facet normal -0.996195 -0 -0.0871558
    outer loop
      vertex 2.11734 3 10.3733
      vertex 2.15 0 10
      vertex 2.11734 0 10.3733
    endloop
  endfacet
  facet normal -0.906307 0 -0.42262
    outer loop
      vertex 2.02034 0 10.7353
      vertex 1.86195 3 11.075
      vertex 2.02034 3 10.7353
    endloop
  endfacet
  facet normal -0.906307 -0 -0.42262
    outer loop
      vertex 1.86195 3 11.075
      vertex 2.02034 0 10.7353
      vertex 1.86195 0 11.075
    endloop
  endfacet
  facet normal 0.258819 0 -0.965926
    outer loop
      vertex -0.735343 0 12.0203
      vertex -0.373343 3 12.1173
      vertex -0.373343 0 12.1173
    endloop
  endfacet
  facet normal 0.258819 0 -0.965926
    outer loop
      vertex -0.373343 3 12.1173
      vertex -0.735343 0 12.0203
      vertex -0.735343 3 12.0203
    endloop
  endfacet
  facet normal 0.707107 0 -0.707107
    outer loop
      vertex -1.38199 0 11.647
      vertex -1.647 3 11.382
      vertex -1.38199 3 11.647
    endloop
  endfacet
  facet normal 0.707107 0 -0.707107
    outer loop
      vertex -1.647 3 11.382
      vertex -1.38199 0 11.647
      vertex -1.647 0 11.382
    endloop
  endfacet
  facet normal 0.965926 0 -0.258819
    outer loop
      vertex -2.02034 0 10.7353
      vertex -2.11734 3 10.3733
      vertex -2.02034 3 10.7353
    endloop
  endfacet
  facet normal 0.965926 0 -0.258819
    outer loop
      vertex -2.11734 3 10.3733
      vertex -2.02034 0 10.7353
      vertex -2.11734 0 10.3733
    endloop
  endfacet
  facet normal -0.707107 0 -0.707107
    outer loop
      vertex 1.647 0 11.382
      vertex 1.38199 3 11.647
      vertex 1.647 3 11.382
    endloop
  endfacet
  facet normal -0.707107 -0 -0.707107
    outer loop
      vertex 1.38199 3 11.647
      vertex 1.647 0 11.382
      vertex 1.38199 0 11.647
    endloop
  endfacet
  facet normal 0.0871558 0 -0.996195
    outer loop
      vertex -0.373343 0 12.1173
      vertex 0 3 12.15
      vertex 0 0 12.15
    endloop
  endfacet
  facet normal 0.0871558 0 -0.996195
    outer loop
      vertex 0 3 12.15
      vertex -0.373343 0 12.1173
      vertex -0.373343 3 12.1173
    endloop
  endfacet
  facet normal 0.42262 0 -0.906307
    outer loop
      vertex -1.075 0 11.862
      vertex -0.735343 3 12.0203
      vertex -0.735343 0 12.0203
    endloop
  endfacet
  facet normal 0.42262 0 -0.906307
    outer loop
      vertex -0.735343 3 12.0203
      vertex -1.075 0 11.862
      vertex -1.075 3 11.862
    endloop
  endfacet
  facet normal 0.573575 0 -0.819153
    outer loop
      vertex -1.38199 0 11.647
      vertex -1.075 3 11.862
      vertex -1.075 0 11.862
    endloop
  endfacet
  facet normal 0.573575 0 -0.819153
    outer loop
      vertex -1.075 3 11.862
      vertex -1.38199 0 11.647
      vertex -1.38199 3 11.647
    endloop
  endfacet
  facet normal 0.819153 0 -0.573575
    outer loop
      vertex -1.647 0 11.382
      vertex -1.86195 3 11.075
      vertex -1.647 3 11.382
    endloop
  endfacet
  facet normal 0.819153 0 -0.573575
    outer loop
      vertex -1.86195 3 11.075
      vertex -1.647 0 11.382
      vertex -1.86195 0 11.075
    endloop
  endfacet
  facet normal 0 -0.087156 -0.996195
    outer loop
      vertex 31.85 25.15 12.15
      vertex 34.85 25.5233 12.1173
      vertex 34.85 25.15 12.15
    endloop
  endfacet
  facet normal -0 -0.087156 -0.996195
    outer loop
      vertex 34.85 25.5233 12.1173
      vertex 31.85 25.15 12.15
      vertex 31.85 25.5233 12.1173
    endloop
  endfacet
  facet normal 0 -0.258819 -0.965926
    outer loop
      vertex 31.85 25.5233 12.1173
      vertex 34.85 25.8853 12.0203
      vertex 34.85 25.5233 12.1173
    endloop
  endfacet
  facet normal -0 -0.258819 -0.965926
    outer loop
      vertex 34.85 25.8853 12.0203
      vertex 31.85 25.5233 12.1173
      vertex 31.85 25.8853 12.0203
    endloop
  endfacet
  facet normal 0 -0.087156 0.996195
    outer loop
      vertex 31.85 25.5233 7.88266
      vertex 34.85 25.15 7.85
      vertex 34.85 25.5233 7.88266
    endloop
  endfacet
  facet normal 0 -0.087156 0.996195
    outer loop
      vertex 34.85 25.15 7.85
      vertex 31.85 25.5233 7.88266
      vertex 31.85 25.15 7.85
    endloop
  endfacet
  facet normal 0 -0.996195 0.0871556
    outer loop
      vertex 31.85 27.2673 9.62666
      vertex 34.85 27.3 10
      vertex 31.85 27.3 10
    endloop
  endfacet
  facet normal 0 -0.996195 0.0871556
    outer loop
      vertex 34.85 27.3 10
      vertex 31.85 27.2673 9.62666
      vertex 34.85 27.2673 9.62666
    endloop
  endfacet
  facet normal 0 -0.707108 0.707106
    outer loop
      vertex 31.85 26.532 8.353
      vertex 34.85 26.797 8.61801
      vertex 31.85 26.797 8.61801
    endloop
  endfacet
  facet normal 0 -0.707108 0.707106
    outer loop
      vertex 34.85 26.797 8.61801
      vertex 31.85 26.532 8.353
      vertex 34.85 26.532 8.353
    endloop
  endfacet
  facet normal 0 -0.90631 0.422614
    outer loop
      vertex 31.85 27.012 8.925
      vertex 34.85 27.1703 9.26466
      vertex 31.85 27.1703 9.26466
    endloop
  endfacet
  facet normal 0 -0.90631 0.422614
    outer loop
      vertex 34.85 27.1703 9.26466
      vertex 31.85 27.012 8.925
      vertex 34.85 27.012 8.925
    endloop
  endfacet
  facet normal 0 -0.90631 -0.422614
    outer loop
      vertex 31.85 27.1703 10.7353
      vertex 34.85 27.012 11.075
      vertex 31.85 27.012 11.075
    endloop
  endfacet
  facet normal 0 -0.90631 -0.422614
    outer loop
      vertex 34.85 27.012 11.075
      vertex 31.85 27.1703 10.7353
      vertex 34.85 27.1703 10.7353
    endloop
  endfacet
  facet normal 0 -0.42262 0.906307
    outer loop
      vertex 31.85 26.225 8.13805
      vertex 34.85 25.8853 7.97966
      vertex 34.85 26.225 8.13805
    endloop
  endfacet
  facet normal 0 -0.42262 0.906307
    outer loop
      vertex 34.85 25.8853 7.97966
      vertex 31.85 26.225 8.13805
      vertex 31.85 25.8853 7.97966
    endloop
  endfacet
  facet normal 0 -0.573572 0.819155
    outer loop
      vertex 31.85 26.532 8.353
      vertex 34.85 26.225 8.13805
      vertex 34.85 26.532 8.353
    endloop
  endfacet
  facet normal 0 -0.573572 0.819155
    outer loop
      vertex 34.85 26.225 8.13805
      vertex 31.85 26.532 8.353
      vertex 31.85 26.225 8.13805
    endloop
  endfacet
  facet normal 0 -0.965925 0.258821
    outer loop
      vertex 31.85 27.1703 9.26466
      vertex 34.85 27.2673 9.62666
      vertex 31.85 27.2673 9.62666
    endloop
  endfacet
  facet normal 0 -0.965925 0.258821
    outer loop
      vertex 34.85 27.2673 9.62666
      vertex 31.85 27.1703 9.26466
      vertex 34.85 27.1703 9.26466
    endloop
  endfacet
  facet normal 0 0.996195 -0.0871508
    outer loop
      vertex 34.85 23 10
      vertex 31.85 23.0327 10.3733
      vertex 34.85 23.0327 10.3733
    endloop
  endfacet
  facet normal 0 0.996195 -0.0871508
    outer loop
      vertex 31.85 23.0327 10.3733
      vertex 34.85 23 10
      vertex 31.85 23 10
    endloop
  endfacet
  facet normal 0 0.90631 -0.422614
    outer loop
      vertex 34.85 23.1297 10.7353
      vertex 31.85 23.288 11.075
      vertex 34.85 23.288 11.075
    endloop
  endfacet
  facet normal 0 0.90631 -0.422614
    outer loop
      vertex 31.85 23.288 11.075
      vertex 34.85 23.1297 10.7353
      vertex 31.85 23.1297 10.7353
    endloop
  endfacet
  facet normal 0 -0.707108 -0.707106
    outer loop
      vertex 31.85 26.797 11.382
      vertex 34.85 26.532 11.647
      vertex 31.85 26.532 11.647
    endloop
  endfacet
  facet normal 0 -0.707108 -0.707106
    outer loop
      vertex 34.85 26.532 11.647
      vertex 31.85 26.797 11.382
      vertex 34.85 26.797 11.382
    endloop
  endfacet
  facet normal 0 -0.819151 -0.573578
    outer loop
      vertex 31.85 27.012 11.075
      vertex 34.85 26.797 11.382
      vertex 31.85 26.797 11.382
    endloop
  endfacet
  facet normal 0 -0.819151 -0.573578
    outer loop
      vertex 34.85 26.797 11.382
      vertex 31.85 27.012 11.075
      vertex 34.85 27.012 11.075
    endloop
  endfacet
  facet normal 0 -0.996195 -0.0871558
    outer loop
      vertex 31.85 27.3 10
      vertex 34.85 27.2673 10.3733
      vertex 31.85 27.2673 10.3733
    endloop
  endfacet
  facet normal 0 -0.996195 -0.0871558
    outer loop
      vertex 34.85 27.2673 10.3733
      vertex 31.85 27.3 10
      vertex 34.85 27.3 10
    endloop
  endfacet
  facet normal 0 -0.965925 -0.258821
    outer loop
      vertex 31.85 27.2673 10.3733
      vertex 34.85 27.1703 10.7353
      vertex 31.85 27.1703 10.7353
    endloop
  endfacet
  facet normal 0 -0.965925 -0.258821
    outer loop
      vertex 34.85 27.1703 10.7353
      vertex 31.85 27.2673 10.3733
      vertex 34.85 27.2673 10.3733
    endloop
  endfacet
  facet normal 0 -0.258819 0.965926
    outer loop
      vertex 31.85 25.8853 7.97966
      vertex 34.85 25.5233 7.88266
      vertex 34.85 25.8853 7.97966
    endloop
  endfacet
  facet normal 0 -0.258819 0.965926
    outer loop
      vertex 34.85 25.5233 7.88266
      vertex 31.85 25.8853 7.97966
      vertex 31.85 25.5233 7.88266
    endloop
  endfacet
  facet normal 0 -0.819151 0.573578
    outer loop
      vertex 31.85 26.797 8.61801
      vertex 34.85 27.012 8.925
      vertex 31.85 27.012 8.925
    endloop
  endfacet
  facet normal 0 -0.819151 0.573578
    outer loop
      vertex 34.85 27.012 8.925
      vertex 31.85 26.797 8.61801
      vertex 34.85 26.797 8.61801
    endloop
  endfacet
  facet normal 0 0.819151 -0.573578
    outer loop
      vertex 34.85 23.288 11.075
      vertex 31.85 23.503 11.382
      vertex 34.85 23.503 11.382
    endloop
  endfacet
  facet normal 0 0.819151 -0.573578
    outer loop
      vertex 31.85 23.503 11.382
      vertex 34.85 23.288 11.075
      vertex 31.85 23.288 11.075
    endloop
  endfacet
  facet normal -0 0.258819 0.965926
    outer loop
      vertex 31.85 24.7767 7.88266
      vertex 34.85 24.4147 7.97966
      vertex 34.85 24.7767 7.88266
    endloop
  endfacet
  facet normal 0 0.258819 0.965926
    outer loop
      vertex 34.85 24.4147 7.97966
      vertex 31.85 24.7767 7.88266
      vertex 31.85 24.4147 7.97966
    endloop
  endfacet
  facet normal 0 0.707108 0.707106
    outer loop
      vertex 34.85 23.768 8.353
      vertex 31.85 23.503 8.61801
      vertex 34.85 23.503 8.61801
    endloop
  endfacet
  facet normal 0 0.707108 0.707106
    outer loop
      vertex 31.85 23.503 8.61801
      vertex 34.85 23.768 8.353
      vertex 31.85 23.768 8.353
    endloop
  endfacet
  facet normal -0 0.087156 0.996195
    outer loop
      vertex 31.85 25.15 7.85
      vertex 34.85 24.7767 7.88266
      vertex 34.85 25.15 7.85
    endloop
  endfacet
  facet normal 0 0.087156 0.996195
    outer loop
      vertex 34.85 24.7767 7.88266
      vertex 31.85 25.15 7.85
      vertex 31.85 24.7767 7.88266
    endloop
  endfacet
  facet normal 0 0.965924 -0.258826
    outer loop
      vertex 34.85 23.0327 10.3733
      vertex 31.85 23.1297 10.7353
      vertex 34.85 23.1297 10.7353
    endloop
  endfacet
  facet normal 0 0.965924 -0.258826
    outer loop
      vertex 31.85 23.1297 10.7353
      vertex 34.85 23.0327 10.3733
      vertex 31.85 23.0327 10.3733
    endloop
  endfacet
  facet normal 0 -0.42262 -0.906307
    outer loop
      vertex 31.85 25.8853 12.0203
      vertex 34.85 26.225 11.862
      vertex 34.85 25.8853 12.0203
    endloop
  endfacet
  facet normal -0 -0.42262 -0.906307
    outer loop
      vertex 34.85 26.225 11.862
      vertex 31.85 25.8853 12.0203
      vertex 31.85 26.225 11.862
    endloop
  endfacet
  facet normal 0 -0.573572 -0.819155
    outer loop
      vertex 31.85 26.225 11.862
      vertex 34.85 26.532 11.647
      vertex 34.85 26.225 11.862
    endloop
  endfacet
  facet normal -0 -0.573572 -0.819155
    outer loop
      vertex 34.85 26.532 11.647
      vertex 31.85 26.225 11.862
      vertex 31.85 26.532 11.647
    endloop
  endfacet
  facet normal 0 0.258819 -0.965926
    outer loop
      vertex 31.85 24.4147 12.0203
      vertex 34.85 24.7767 12.1173
      vertex 34.85 24.4147 12.0203
    endloop
  endfacet
  facet normal 0 0.258819 -0.965926
    outer loop
      vertex 34.85 24.7767 12.1173
      vertex 31.85 24.4147 12.0203
      vertex 31.85 24.7767 12.1173
    endloop
  endfacet
  facet normal 0 0.087156 -0.996195
    outer loop
      vertex 31.85 24.7767 12.1173
      vertex 34.85 25.15 12.15
      vertex 34.85 24.7767 12.1173
    endloop
  endfacet
  facet normal 0 0.087156 -0.996195
    outer loop
      vertex 34.85 25.15 12.15
      vertex 31.85 24.7767 12.1173
      vertex 31.85 25.15 12.15
    endloop
  endfacet
  facet normal 0 0.573572 -0.819155
    outer loop
      vertex 31.85 23.768 11.647
      vertex 34.85 24.075 11.862
      vertex 34.85 23.768 11.647
    endloop
  endfacet
  facet normal 0 0.573572 -0.819155
    outer loop
      vertex 34.85 24.075 11.862
      vertex 31.85 23.768 11.647
      vertex 31.85 24.075 11.862
    endloop
  endfacet
  facet normal 0 0.42262 -0.906307
    outer loop
      vertex 31.85 24.075 11.862
      vertex 34.85 24.4147 12.0203
      vertex 34.85 24.075 11.862
    endloop
  endfacet
  facet normal 0 0.42262 -0.906307
    outer loop
      vertex 34.85 24.4147 12.0203
      vertex 31.85 24.075 11.862
      vertex 31.85 24.4147 12.0203
    endloop
  endfacet
  facet normal -0 0.573572 0.819155
    outer loop
      vertex 31.85 24.075 8.13805
      vertex 34.85 23.768 8.353
      vertex 34.85 24.075 8.13805
    endloop
  endfacet
  facet normal 0 0.573572 0.819155
    outer loop
      vertex 34.85 23.768 8.353
      vertex 31.85 24.075 8.13805
      vertex 31.85 23.768 8.353
    endloop
  endfacet
  facet normal 0 0.707108 -0.707106
    outer loop
      vertex 34.85 23.503 11.382
      vertex 31.85 23.768 11.647
      vertex 34.85 23.768 11.647
    endloop
  endfacet
  facet normal 0 0.707108 -0.707106
    outer loop
      vertex 31.85 23.768 11.647
      vertex 34.85 23.503 11.382
      vertex 31.85 23.503 11.382
    endloop
  endfacet
  facet normal 0 0.965924 0.258826
    outer loop
      vertex 34.85 23.1297 9.26466
      vertex 31.85 23.0327 9.62666
      vertex 34.85 23.0327 9.62666
    endloop
  endfacet
  facet normal 0 0.965924 0.258826
    outer loop
      vertex 31.85 23.0327 9.62666
      vertex 34.85 23.1297 9.26466
      vertex 31.85 23.1297 9.26466
    endloop
  endfacet
  facet normal 0 0.996195 0.0871505
    outer loop
      vertex 34.85 23.0327 9.62666
      vertex 31.85 23 10
      vertex 34.85 23 10
    endloop
  endfacet
  facet normal 0 0.996195 0.0871505
    outer loop
      vertex 31.85 23 10
      vertex 34.85 23.0327 9.62666
      vertex 31.85 23.0327 9.62666
    endloop
  endfacet
  facet normal -0 0.42262 0.906307
    outer loop
      vertex 31.85 24.4147 7.97966
      vertex 34.85 24.075 8.13805
      vertex 34.85 24.4147 7.97966
    endloop
  endfacet
  facet normal 0 0.42262 0.906307
    outer loop
      vertex 34.85 24.075 8.13805
      vertex 31.85 24.4147 7.97966
      vertex 31.85 24.075 8.13805
    endloop
  endfacet
  facet normal 0 0.819151 0.573578
    outer loop
      vertex 34.85 23.503 8.61801
      vertex 31.85 23.288 8.925
      vertex 34.85 23.288 8.925
    endloop
  endfacet
  facet normal 0 0.819151 0.573578
    outer loop
      vertex 31.85 23.288 8.925
      vertex 34.85 23.503 8.61801
      vertex 31.85 23.503 8.61801
    endloop
  endfacet
  facet normal 0 0.90631 0.422614
    outer loop
      vertex 34.85 23.288 8.925
      vertex 31.85 23.1297 9.26466
      vertex 34.85 23.1297 9.26466
    endloop
  endfacet
  facet normal 0 0.90631 0.422614
    outer loop
      vertex 31.85 23.1297 9.26466
      vertex 34.85 23.288 8.925
      vertex 31.85 23.288 8.925
    endloop
  endfacet
  facet normal 1 0 0
    outer loop
      vertex -5 -1.5 8.5
      vertex -5 0 13
      vertex -5 -1.5 13
    endloop
  endfacet
  facet normal 1 0 0
    outer loop
      vertex -5 0 13
      vertex -5 -1.5 8.5
      vertex -5 0 7
    endloop
  endfacet
  facet normal -1 0 0
    outer loop
      vertex 5 -1.5 8.5
      vertex 5 0 13
      vertex 5 0 7
    endloop
  endfacet
  facet normal -1 -0 0
    outer loop
      vertex 5 0 13
      vertex 5 -1.5 8.5
      vertex 5 -1.5 13
    endloop
  endfacet
  facet normal 0 -1 0
    outer loop
      vertex 34.85 30.15 13
      vertex 36.35 30.15 8.5
      vertex 36.35 30.15 13
    endloop
  endfacet
  facet normal -0 -1 0
    outer loop
      vertex 36.35 30.15 8.5
      vertex 34.85 30.15 13
      vertex 34.85 30.15 7
    endloop
  endfacet
  facet normal 0 1 -0
    outer loop
      vertex 36.35 20.15 8.5
      vertex 34.85 20.15 13
      vertex 36.35 20.15 13
    endloop
  endfacet
  facet normal 0 1 0
    outer loop
      vertex 34.85 20.15 13
      vertex 36.35 20.15 8.5
      vertex 34.85 20.15 7
    endloop
  endfacet
  facet normal 1 -0 0
    outer loop
      vertex -23.85 11 1.5
      vertex -23.85 39.3 0
      vertex -23.85 39.3 1.5
    endloop
  endfacet
  facet normal 1 0 0
    outer loop
      vertex -23.85 39.3 0
      vertex -23.85 11 1.5
      vertex -23.85 11 0
    endloop
  endfacet
  facet normal -1 0 0
    outer loop
      vertex 23.85 11 0
      vertex 23.85 39.3 1.5
      vertex 23.85 39.3 0
    endloop
  endfacet
  facet normal -1 -0 0
    outer loop
      vertex 23.85 39.3 1.5
      vertex 23.85 11 0
      vertex 23.85 11 1.5
    endloop
  endfacet
  facet normal 0 -1 0
    outer loop
      vertex -23.85 39.3 0
      vertex 23.85 39.3 1.5
      vertex -23.85 39.3 1.5
    endloop
  endfacet
  facet normal 0 -1 -0
    outer loop
      vertex 23.85 39.3 1.5
      vertex -23.85 39.3 0
      vertex 23.85 39.3 0
    endloop
  endfacet
  facet normal 0 1 -0
    outer loop
      vertex 23.85 11 0
      vertex -23.85 11 1.5
      vertex 23.85 11 1.5
    endloop
  endfacet
  facet normal 0 1 0
    outer loop
      vertex -23.85 11 1.5
      vertex 23.85 11 0
      vertex -23.85 11 0
    endloop
  endfacet
  facet normal 1 -0 0
    outer loop
      vertex -31.85 3 37
      vertex -31.85 47.3 1.5
      vertex -31.85 47.3 37
    endloop
  endfacet
  facet normal 1 0 0
    outer loop
      vertex -31.85 47.3 1.5
      vertex -31.85 3 37
      vertex -31.85 3 1.5
    endloop
  endfacet
  facet normal -1 0 0
    outer loop
      vertex 31.85 27.2673 10.3733
      vertex 31.85 47.3 1.5
      vertex 31.85 27.3 10
    endloop
  endfacet
  facet normal -1 0 0
    outer loop
      vertex 31.85 47.3 1.5
      vertex 31.85 27.2673 9.62666
      vertex 31.85 27.3 10
    endloop
  endfacet
  facet normal -1 0 0
    outer loop
      vertex 31.85 47.3 1.5
      vertex 31.85 27.1703 9.26466
      vertex 31.85 27.2673 9.62666
    endloop
  endfacet
  facet normal -1 0 0
    outer loop
      vertex 31.85 47.3 1.5
      vertex 31.85 27.012 8.925
      vertex 31.85 27.1703 9.26466
    endloop
  endfacet
  facet normal -1 0 0
    outer loop
      vertex 31.85 47.3 1.5
      vertex 31.85 26.797 8.61801
      vertex 31.85 27.012 8.925
    endloop
  endfacet
  facet normal -1 0 0
    outer loop
      vertex 31.85 47.3 1.5
      vertex 31.85 26.532 8.353
      vertex 31.85 26.797 8.61801
    endloop
  endfacet
  facet normal -1 0 0
    outer loop
      vertex 31.85 47.3 1.5
      vertex 31.85 26.225 8.13805
      vertex 31.85 26.532 8.353
    endloop
  endfacet
  facet normal -1 0 0
    outer loop
      vertex 31.85 47.3 1.5
      vertex 31.85 25.8853 7.97966
      vertex 31.85 26.225 8.13805
    endloop
  endfacet
  facet normal -1 0 0
    outer loop
      vertex 31.85 47.3 1.5
      vertex 31.85 25.5233 7.88266
      vertex 31.85 25.8853 7.97966
    endloop
  endfacet
  facet normal -1 0 0
    outer loop
      vertex 31.85 47.3 1.5
      vertex 31.85 25.15 7.85
      vertex 31.85 25.5233 7.88266
    endloop
  endfacet
  facet normal -1 0 0
    outer loop
      vertex 31.85 3 1.5
      vertex 31.85 25.15 7.85
      vertex 31.85 47.3 1.5
    endloop
  endfacet
  facet normal -1 -0 0
    outer loop
      vertex 31.85 25.15 7.85
      vertex 31.85 3 1.5
      vertex 31.85 24.7767 7.88266
    endloop
  endfacet
  facet normal -1 -0 0
    outer loop
      vertex 31.85 23.0327 9.62666
      vertex 31.85 3 1.5
      vertex 31.85 23 10
    endloop
  endfacet
  facet normal -1 -0 0
    outer loop
      vertex 31.85 23.1297 9.26466
      vertex 31.85 3 1.5
      vertex 31.85 23.0327 9.62666
    endloop
  endfacet
  facet normal -1 -0 0
    outer loop
      vertex 31.85 23.288 8.925
      vertex 31.85 3 1.5
      vertex 31.85 23.1297 9.26466
    endloop
  endfacet
  facet normal -1 -0 0
    outer loop
      vertex 31.85 23.503 8.61801
      vertex 31.85 3 1.5
      vertex 31.85 23.288 8.925
    endloop
  endfacet
  facet normal -1 -0 0
    outer loop
      vertex 31.85 23.768 8.353
      vertex 31.85 3 1.5
      vertex 31.85 23.503 8.61801
    endloop
  endfacet
  facet normal -1 -0 0
    outer loop
      vertex 31.85 24.075 8.13805
      vertex 31.85 3 1.5
      vertex 31.85 23.768 8.353
    endloop
  endfacet
  facet normal -1 -0 0
    outer loop
      vertex 31.85 24.4147 7.97966
      vertex 31.85 3 1.5
      vertex 31.85 24.075 8.13805
    endloop
  endfacet
  facet normal -1 -0 0
    outer loop
      vertex 31.85 24.7767 7.88266
      vertex 31.85 3 1.5
      vertex 31.85 24.4147 7.97966
    endloop
  endfacet
  facet normal -1 0 0
    outer loop
      vertex 31.85 27.1703 10.7353
      vertex 31.85 47.3 1.5
      vertex 31.85 27.2673 10.3733
    endloop
  endfacet
  facet normal -1 0 0
    outer loop
      vertex 31.85 27.012 11.075
      vertex 31.85 47.3 1.5
      vertex 31.85 27.1703 10.7353
    endloop
  endfacet
  facet normal -1 0 0
    outer loop
      vertex 31.85 47.3 1.5
      vertex 31.85 27.012 11.075
      vertex 31.85 47.3 37
    endloop
  endfacet
  facet normal -1 0 0
    outer loop
      vertex 31.85 26.797 11.382
      vertex 31.85 47.3 37
      vertex 31.85 27.012 11.075
    endloop
  endfacet
  facet normal -1 0 0
    outer loop
      vertex 31.85 26.532 11.647
      vertex 31.85 47.3 37
      vertex 31.85 26.797 11.382
    endloop
  endfacet
  facet normal -1 0 0
    outer loop
      vertex 31.85 26.225 11.862
      vertex 31.85 47.3 37
      vertex 31.85 26.532 11.647
    endloop
  endfacet
  facet normal -1 0 0
    outer loop
      vertex 31.85 25.8853 12.0203
      vertex 31.85 47.3 37
      vertex 31.85 26.225 11.862
    endloop
  endfacet
  facet normal -1 0 0
    outer loop
      vertex 31.85 25.5233 12.1173
      vertex 31.85 47.3 37
      vertex 31.85 25.8853 12.0203
    endloop
  endfacet
  facet normal -1 0 0
    outer loop
      vertex 31.85 25.15 12.15
      vertex 31.85 47.3 37
      vertex 31.85 25.5233 12.1173
    endloop
  endfacet
  facet normal -1 0 0
    outer loop
      vertex 31.85 3 37
      vertex 31.85 25.15 12.15
      vertex 31.85 24.7767 12.1173
    endloop
  endfacet
  facet normal -1 0 0
    outer loop
      vertex 31.85 3 37
      vertex 31.85 24.7767 12.1173
      vertex 31.85 24.4147 12.0203
    endloop
  endfacet
  facet normal -1 0 0
    outer loop
      vertex 31.85 3 37
      vertex 31.85 24.4147 12.0203
      vertex 31.85 24.075 11.862
    endloop
  endfacet
  facet normal -1 0 0
    outer loop
      vertex 31.85 3 37
      vertex 31.85 24.075 11.862
      vertex 31.85 23.768 11.647
    endloop
  endfacet
  facet normal -1 0 0
    outer loop
      vertex 31.85 3 37
      vertex 31.85 23.768 11.647
      vertex 31.85 23.503 11.382
    endloop
  endfacet
  facet normal -1 0 0
    outer loop
      vertex 31.85 3 1.5
      vertex 31.85 23.0327 10.3733
      vertex 31.85 23 10
    endloop
  endfacet
  facet normal -1 0 0
    outer loop
      vertex 31.85 3 1.5
      vertex 31.85 23.1297 10.7353
      vertex 31.85 23.0327 10.3733
    endloop
  endfacet
  facet normal -1 0 0
    outer loop
      vertex 31.85 3 1.5
      vertex 31.85 23.288 11.075
      vertex 31.85 23.1297 10.7353
    endloop
  endfacet
  facet normal -1 0 0
    outer loop
      vertex 31.85 3 37
      vertex 31.85 23.288 11.075
      vertex 31.85 3 1.5
    endloop
  endfacet
  facet normal -1 0 0
    outer loop
      vertex 31.85 23.288 11.075
      vertex 31.85 3 37
      vertex 31.85 23.503 11.382
    endloop
  endfacet
  facet normal -1 0 0
    outer loop
      vertex 31.85 25.15 12.15
      vertex 31.85 3 37
      vertex 31.85 47.3 37
    endloop
  endfacet
  facet normal 0 0 1
    outer loop
      vertex 31.85 47.3 1.5
      vertex 23.85 39.3 1.5
      vertex 31.85 3 1.5
    endloop
  endfacet
  facet normal 0 0 1
    outer loop
      vertex 31.85 47.3 1.5
      vertex -23.85 39.3 1.5
      vertex 23.85 39.3 1.5
    endloop
  endfacet
  facet normal 0 0 1
    outer loop
      vertex -23.85 39.3 1.5
      vertex -31.85 47.3 1.5
      vertex -23.85 11 1.5
    endloop
  endfacet
  facet normal -0 0 1
    outer loop
      vertex -31.85 47.3 1.5
      vertex -23.85 39.3 1.5
      vertex 31.85 47.3 1.5
    endloop
  endfacet
  facet normal -0 0 1
    outer loop
      vertex 23.85 11 1.5
      vertex 31.85 3 1.5
      vertex 23.85 39.3 1.5
    endloop
  endfacet
  facet normal -0 0 1
    outer loop
      vertex -23.85 11 1.5
      vertex 31.85 3 1.5
      vertex 23.85 11 1.5
    endloop
  endfacet
  facet normal 0 0 1
    outer loop
      vertex -23.85 11 1.5
      vertex -31.85 3 1.5
      vertex 31.85 3 1.5
    endloop
  endfacet
  facet normal 0 0 1
    outer loop
      vertex -31.85 3 1.5
      vertex -23.85 11 1.5
      vertex -31.85 47.3 1.5
    endloop
  endfacet
  facet normal 0 1 0
    outer loop
      vertex 31.85 3 37
      vertex 0 3 12.15
      vertex -31.85 3 37
    endloop
  endfacet
  facet normal 0 1 0
    outer loop
      vertex 31.85 3 37
      vertex 0.373343 3 12.1173
      vertex 0 3 12.15
    endloop
  endfacet
  facet normal 0 1 0
    outer loop
      vertex 31.85 3 37
      vertex 0.735343 3 12.0203
      vertex 0.373343 3 12.1173
    endloop
  endfacet
  facet normal 0 1 0
    outer loop
      vertex 31.85 3 37
      vertex 1.075 3 11.862
      vertex 0.735343 3 12.0203
    endloop
  endfacet
  facet normal 0 1 0
    outer loop
      vertex 31.85 3 37
      vertex 1.38199 3 11.647
      vertex 1.075 3 11.862
    endloop
  endfacet
  facet normal 0 1 0
    outer loop
      vertex 31.85 3 37
      vertex 1.647 3 11.382
      vertex 1.38199 3 11.647
    endloop
  endfacet
  facet normal 0 1 0
    outer loop
      vertex 31.85 3 37
      vertex 1.86195 3 11.075
      vertex 1.647 3 11.382
    endloop
  endfacet
  facet normal 0 1 0
    outer loop
      vertex 31.85 3 37
      vertex 2.02034 3 10.7353
      vertex 1.86195 3 11.075
    endloop
  endfacet
  facet normal 0 1 -0
    outer loop
      vertex 31.85 3 1.5
      vertex 2.02034 3 10.7353
      vertex 31.85 3 37
    endloop
  endfacet
  facet normal 0 1 0
    outer loop
      vertex 2.02034 3 10.7353
      vertex 31.85 3 1.5
      vertex 2.11734 3 10.3733
    endloop
  endfacet
  facet normal 0 1 0
    outer loop
      vertex 2.11734 3 10.3733
      vertex 31.85 3 1.5
      vertex 2.15 3 10
    endloop
  endfacet
  facet normal 0 1 0
    outer loop
      vertex 2.15 3 10
      vertex 31.85 3 1.5
      vertex 2.11734 3 9.62666
    endloop
  endfacet
  facet normal 0 1 0
    outer loop
      vertex 2.11734 3 9.62666
      vertex 31.85 3 1.5
      vertex 2.02034 3 9.26466
    endloop
  endfacet
  facet normal 0 1 0
    outer loop
      vertex 2.02034 3 9.26466
      vertex 31.85 3 1.5
      vertex 1.86195 3 8.925
    endloop
  endfacet
  facet normal 0 1 0
    outer loop
      vertex 1.86195 3 8.925
      vertex 31.85 3 1.5
      vertex 1.647 3 8.61801
    endloop
  endfacet
  facet normal 0 1 0
    outer loop
      vertex 0.373343 3 7.88266
      vertex 31.85 3 1.5
      vertex 0 3 7.85
    endloop
  endfacet
  facet normal 0 1 0
    outer loop
      vertex 0.735343 3 7.97966
      vertex 31.85 3 1.5
      vertex 0.373343 3 7.88266
    endloop
  endfacet
  facet normal 0 1 0
    outer loop
      vertex 1.075 3 8.13805
      vertex 31.85 3 1.5
      vertex 0.735343 3 7.97966
    endloop
  endfacet
  facet normal 0 1 0
    outer loop
      vertex 1.38199 3 8.353
      vertex 31.85 3 1.5
      vertex 1.075 3 8.13805
    endloop
  endfacet
  facet normal 0 1 0
    outer loop
      vertex 1.647 3 8.61801
      vertex 31.85 3 1.5
      vertex 1.38199 3 8.353
    endloop
  endfacet
  facet normal 0 1 -0
    outer loop
      vertex -0.373343 3 12.1173
      vertex -31.85 3 37
      vertex 0 3 12.15
    endloop
  endfacet
  facet normal 0 1 -0
    outer loop
      vertex -0.735343 3 12.0203
      vertex -31.85 3 37
      vertex -0.373343 3 12.1173
    endloop
  endfacet
  facet normal 0 1 -0
    outer loop
      vertex -1.075 3 11.862
      vertex -31.85 3 37
      vertex -0.735343 3 12.0203
    endloop
  endfacet
  facet normal 0 1 -0
    outer loop
      vertex -1.38199 3 11.647
      vertex -31.85 3 37
      vertex -1.075 3 11.862
    endloop
  endfacet
  facet normal 0 1 -0
    outer loop
      vertex -1.647 3 11.382
      vertex -31.85 3 37
      vertex -1.38199 3 11.647
    endloop
  endfacet
  facet normal 0 1 -0
    outer loop
      vertex -1.86195 3 11.075
      vertex -31.85 3 37
      vertex -1.647 3 11.382
    endloop
  endfacet
  facet normal 0 1 -0
    outer loop
      vertex -2.02034 3 10.7353
      vertex -31.85 3 37
      vertex -1.86195 3 11.075
    endloop
  endfacet
  facet normal 0 1 0
    outer loop
      vertex -31.85 3 1.5
      vertex -2.02034 3 10.7353
      vertex -2.11734 3 10.3733
    endloop
  endfacet
  facet normal 0 1 0
    outer loop
      vertex -31.85 3 1.5
      vertex -2.11734 3 10.3733
      vertex -2.15 3 10
    endloop
  endfacet
  facet normal 0 1 0
    outer loop
      vertex -31.85 3 1.5
      vertex -2.15 3 10
      vertex -2.11734 3 9.62666
    endloop
  endfacet
  facet normal 0 1 0
    outer loop
      vertex -31.85 3 1.5
      vertex -2.11734 3 9.62666
      vertex -2.02034 3 9.26466
    endloop
  endfacet
  facet normal 0 1 0
    outer loop
      vertex -31.85 3 1.5
      vertex -2.02034 3 9.26466
      vertex -1.86195 3 8.925
    endloop
  endfacet
  facet normal 0 1 0
    outer loop
      vertex -31.85 3 1.5
      vertex -1.86195 3 8.925
      vertex -1.647 3 8.61801
    endloop
  endfacet
  facet normal 0 1 0
    outer loop
      vertex -31.85 3 1.5
      vertex -1.647 3 8.61801
      vertex -1.38199 3 8.353
    endloop
  endfacet
  facet normal 0 1 0
    outer loop
      vertex -31.85 3 1.5
      vertex 0 3 7.85
      vertex 31.85 3 1.5
    endloop
  endfacet
  facet normal 0 1 0
    outer loop
      vertex -2.02034 3 10.7353
      vertex -31.85 3 1.5
      vertex -31.85 3 37
    endloop
  endfacet
  facet normal 0 1 0
    outer loop
      vertex -1.075 3 8.13805
      vertex -31.85 3 1.5
      vertex -1.38199 3 8.353
    endloop
  endfacet
  facet normal 0 1 0
    outer loop
      vertex -0.735343 3 7.97966
      vertex -31.85 3 1.5
      vertex -1.075 3 8.13805
    endloop
  endfacet
  facet normal 0 1 0
    outer loop
      vertex -0.373343 3 7.88266
      vertex -31.85 3 1.5
      vertex -0.735343 3 7.97966
    endloop
  endfacet
  facet normal 0 1 0
    outer loop
      vertex 0 3 7.85
      vertex -31.85 3 1.5
      vertex -0.373343 3 7.88266
    endloop
  endfacet
  facet normal 0 -1 0
    outer loop
      vertex -31.85 47.3 1.5
      vertex 31.85 47.3 37
      vertex -31.85 47.3 37
    endloop
  endfacet
  facet normal 0 -1 -0
    outer loop
      vertex 31.85 47.3 37
      vertex -31.85 47.3 1.5
      vertex 31.85 47.3 1.5
    endloop
  endfacet
endsolid OpenSCAD_Model
